<?xml version="1.0" encoding="UTF-8"?>
<svg id="Capa_1" data-name="Capa 1" xmlns="http://www.w3.org/2000/svg" viewBox="0 0 1366 768">
  <defs>
    <style>
      .cls-1 {
        fill: #ffea83;
      }

      .cls-2 {
        fill: #ffe14e;
      }

      .cls-3 {
        fill: #ffe568;
      }

      .cls-4 {
        fill: #fffceb;
      }

      .cls-5 {
        fill: #fff3b7;
      }

      .cls-6 {
        fill: #ffee9d;
      }
    </style>
  </defs>
  <path class="cls-4" d="m773.98-475.72c-62.31,115.3-124.63,230.59-186.94,345.89C388.72,237.13,190.39,604.09-7.94,971.05c-67.61-36.54-135.22-73.08-202.82-109.62C-12.43,494.47,185.89,127.51,384.22-239.45c62.31-115.3,124.63-230.59,186.94-345.89,67.61,36.54,135.22,73.08,202.82,109.62Z"/>
  <path class="cls-5" d="m976.8-366.1c-62.31,115.3-124.63,230.59-186.94,345.89-198.33,366.96-396.65,733.92-594.98,1100.88-67.61-36.54-135.22-73.08-202.82-109.62C190.39,604.09,388.72,237.13,587.04-129.83c62.31-115.3,124.63-230.59,186.94-345.89,67.61,36.54,135.22,73.08,202.82,109.62Z"/>
  <path class="cls-6" d="m1179.63-256.49c-62.31,115.3-124.63,230.59-186.94,345.89-198.33,366.96-396.65,733.92-594.98,1100.88-67.61-36.54-135.22-73.08-202.82-109.62C393.21,713.71,591.54,346.75,789.86-20.21c62.31-115.3,124.63-230.59,186.94-345.89,67.61,36.54,135.22,73.08,202.82,109.62Z"/>
  <path class="cls-1" d="m1382.45-146.87c-62.31,115.3-124.63,230.59-186.94,345.89-198.33,366.96-396.65,733.92-594.98,1100.88-67.61-36.54-135.22-73.08-202.82-109.62C596.04,823.32,794.36,456.36,992.69,89.4c62.31-115.3,124.63-230.59,186.94-345.89,67.61,36.54,135.22,73.08,202.82,109.62Z"/>
  <path class="cls-3" d="m1585.27-37.25c-62.31,115.3-124.63,230.59-186.94,345.89-198.33,366.96-396.65,733.92-594.98,1100.88-67.61-36.54-135.22-73.08-202.82-109.62,198.33-366.96,396.65-733.92,594.98-1100.88,62.31-115.3,124.63-230.59,186.94-345.89,67.61,36.54,135.22,73.08,202.82,109.62Z"/>
  <path class="cls-2" d="m1788.1,72.36l-186.94,345.89c-198.33,366.96-396.65,733.92-594.98,1100.88-67.61-36.54-135.22-73.08-202.82-109.62,198.33-366.96,396.65-733.92,594.98-1100.88,62.31-115.3,124.63-230.59,186.94-345.89,67.61,36.54,135.22,73.08,202.82,109.62Z"/>
</svg>