<?xml version="1.0" encoding="UTF-8"?>
<svg id="uuid-8f54eeab-8401-4a10-afee-0e66feafe4ac" data-name="Capa 1" xmlns="http://www.w3.org/2000/svg" viewBox="0 0 403.9 183.9">
  <defs>
    <style>
      .uuid-4cc685ca-0bbf-4215-bab7-96fe1411fa01 {
        fill: #fde0ce;
      }

      .uuid-2c266f21-d1c7-41d0-8ad6-b6f54e32f295, .uuid-cad62f46-cfbb-4d49-aa0d-301057425602 {
        stroke-width: .7px;
      }

      .uuid-2c266f21-d1c7-41d0-8ad6-b6f54e32f295, .uuid-cad62f46-cfbb-4d49-aa0d-301057425602, .uuid-31f0ce7f-3343-45a0-b008-5e13b3ac17b2 {
        fill: none;
        stroke-miterlimit: 10;
      }

      .uuid-2c266f21-d1c7-41d0-8ad6-b6f54e32f295, .uuid-31f0ce7f-3343-45a0-b008-5e13b3ac17b2 {
        stroke: #000;
      }

      .uuid-cad62f46-cfbb-4d49-aa0d-301057425602 {
        stroke: #f99;
      }

      .uuid-bdfa8fb1-f54a-480f-b9ad-6ba9ab76b4e5 {
        fill: #300;
      }

      .uuid-31f0ce7f-3343-45a0-b008-5e13b3ac17b2 {
        stroke-width: 2px;
      }

      .uuid-b559e32b-ff38-4b63-a040-9900be3f0b84 {
        fill: #ec1c5a;
      }
    </style>
  </defs>
  <g id="uuid-63213d49-aeda-4e49-aef8-6dc44f4aa05d" data-name="Capa 1">
    <path class="uuid-2c266f21-d1c7-41d0-8ad6-b6f54e32f295" d="m218.6,18.5c8.3,1.1,17.9,3.1,28.1,6.6,4.3,1.5,8.3,3.1,12,4.7,3.5-2.9,6.8-4.3,8.5-4.9,3.3-1.3,7-2.1,10.5-2.1s1.9,0,2.8.1h0c1,.1,2.1.3,3.1.5,5.7-7.6,14.3-12.2,23.1-12.2s5.8.5,8.4,1.5c.3.1.7.3,1.1.4,12.9-11.2,19.8-11.8,22.5-12h.3c1.1,0,2.4-.1,2.4-.1h2.8c5,0,11.4.6,17.3,5.2h.2c0,.1.2.3.2.3,3.7,3,6.4,6.9,8,11.6l.3,1.1.2,1.1c1,5.1.9,9.8-.3,14.5-.5,1.9-1.1,3.7-1.9,5.3,1.5,2.8,2.7,7,1.9,12.4v.5c-.4,1.7-.9,3.3-1.5,5,5.2-1.2,8.9-1.7,12.2-1.7,6.5,0,11.9,2.1,16.1,6.3,2.5,2.5,5.7,7,6.4,13.9v.9c0,0,0,.9,0,.9,0,3.7-.7,7.4-2.1,10.8h0c-2.1,5.2-5.5,9-9.3,11.8-1.7,10-10.6,14-13.7,15.4l-.7.3c-5.5,2.5-10.2,3.8-20.4,4.3.5.2,1.1.4,1.5.6,18.8,7.6,21.4,17.9,20.3,25.4-.9,5.9-4.8,13.6-18.3,16.9-4.3,1.1-8.6,1.5-10,1.6-2.4.3-4.9.4-7.3.4-4.1,0-8.3-.3-12.4-1.1-3.3,2.7-7.5,4.1-12.1,4.1-8.2,0-16.4-4.7-19.5-6.7-.6-.4-1.1-.7-1.7-1.1-.5,0-.9.1-1.4.2-.5,0-1.1,0-1.6,0s-.9,0-1.5,0c-9.8,8.1-19.7,12.1-26.7,14.1h-.2c-11.1,3.1-22.7,5.4-34.6,6.8-9.4,1.1-18.8,1.7-28.1,1.7h-2.9c-9.3,0-18.7-.5-28-1.7-11.9-1.5-23.5-3.7-34.7-6.8h-.2c-7.2-2.1-17.5-6.4-27.6-14.9-.4,0-.8,0-1.1,0-.5,0-1,0-1.5,0-.5,0-.9-.1-1.4-.2-.5.4-1.1.7-1.7,1.1-3.1,2-11.3,6.7-19.5,6.7s-8.8-1.5-12.1-4.1c-4.1.7-8.3,1.1-12.4,1.1s-4.9-.1-7.3-.4c-1.5-.1-5.8-.6-10-1.6-13.5-3.3-17.4-11.1-18.3-17-1.1-7.4,1.5-17.7,20.3-25.3.5-.2,1-.4,1.5-.6-10.2-.5-14.9-1.8-20.4-4.3l-.7-.3c-3.1-1.4-11.9-5.4-13.7-15.4-3.7-2.8-7.2-6.6-9.3-11.6h0c-1.4-3.6-2.1-7.2-2.1-10.9v-1.7c.8-6.9,3.9-11.4,6.5-13.9,4.1-4.1,9.6-6.3,16.1-6.3s7,.5,12.2,1.7c-.7-1.5-1.2-3.2-1.5-5v-.3c0,0,0-.2,0-.2-.9-5.4.5-9.6,1.9-12.4-.7-1.6-1.3-3.4-1.9-5.3-1.2-4.7-1.3-9.4-.3-14.5l.2-1.1.3-1.1c1.6-4.7,4.3-8.6,8-11.6l.2-.2h.2C48.1.9,54.5.3,59.5.3h2.8s1.3,0,2.4.1h.3c2.7.3,9.5.9,22.5,12,.4-.1.7-.3,1.1-.4,2.7-.9,5.6-1.5,8.4-1.5,8.9,0,17.5,4.5,23.1,12.2,1-.3,2-.4,3.1-.5h0c.9,0,1.9-.1,2.8-.1,3.5,0,7.2.7,10.5,2.1,1.8.7,5.6,2.2,9.3,5.6,3.8-1.7,7.8-3.2,11.6-4.5,1.6-.5,5.4-1.8,10.2-3.1,4.6-1.2,10.7-2.5,17.9-3.5,5-.5,10.6-.8,16.6-.8,6,0,11.4.2,16.3.7Z"/>
    <path class="uuid-b559e32b-ff38-4b63-a040-9900be3f0b84" d="m139.2,51.2c0-.9.3-5.5-2.9-9.1-1.8-2-3.9-2.8-5-3.2-1.2-.5-3.3-1.2-5.8-.9-6,.7-9.1,6.2-9.4,6.8-2.6-4-5.2-8-7.8-12-3.5-5.2-9.3-7.4-13.8-5.8-2.8,1-4.4,3.3-5.2,4.5-.3,1.3-.5,2.5-.8,3.7-10.6-11.4-20.1-18.6-24.5-19-.9,0-2.1-.1-2.1-.1-3.6,0-7-.1-9.6,1.8-.7.6-2.1,1.8-2.9,4.3-.3,1.7-.7,4.4.1,7.5,1.9,7.6,8.8,11.2,10,11.7,3.5,2.1,6.9,4.1,10.4,6.2-1.7-.6-17-5.8-19.8-1.3-.7,1.1-.4,2.3-.3,2.7,1.5,8.1,21.7,11.2,24.3,11.6,3.6.4,7.2.8,10.8,1.3-.9.2-2.6.7-4.1,2.1-.5.5-.9.9-1.1,1.3-.9,1.4-1.3,2.6-1,3.6,1.2,4.4,13.4,5.9,36.8,4.4,7.8-7.4,15.8-14.8,23.8-22.2Z"/>
    <path class="uuid-b559e32b-ff38-4b63-a040-9900be3f0b84" d="m109.3,84.7c-2.1-1.8-5.2-3.9-9.4-5.5-1.3-.5-10.1-3.7-12.2-.7-.4.5-.9,1.7.2,4.3.3.9.6,1.8.9,2.7-7.7-5.2-16.8-9.7-27.4-12.5-.9-.3-1.8-.5-2.7-.7-.3,0-1.4-.3-2.5.3-1.2.7-1.9,2.1-1.7,3.6.4,1.2.8,2.4,1.3,3.6-7.1-2.6-13.2-4.5-17.9-5.8-12.9-3.6-17.1-3.6-19.3-1.3-1.3,1.3-1.7,2.9-1.8,4.2,0,2,.5,3.5.9,4.7,3.5,8.2,15.4,9.1,16.1,9.1-3.5,1.2-5.9,3.3-5.8,5.4,0,2.3,2.6,3.3,5.1,4.4,3.5,1.6,6.2,2.9,19.8,3.1.4,0,.9,0,1.3,0,7-.5,14.1-.9,21.1-1.4-7,2.8-10.4,5-10.1,6.6.1.8,1.3,1.5,3.3,1.9,2.5.2,5.1.3,7.8.5,10,.3,19.3-.4,27.4-1.6,1.8-8.4,3.7-16.7,5.7-25Z"/>
    <path class="uuid-b559e32b-ff38-4b63-a040-9900be3f0b84" d="m103.3,113.2c-2.5,0-4.5.7-5.6,1.1-2.2.9-2.5,1.6-2.5,1.9-.2.9.4,1.8.7,2.1,1.3.8,2.5,1.7,3.7,2.5-11.3,1.3-20.1,2.1-26,2.5-5.2.4-10.5.9-11.2,3.3-.5,1.8,1.6,4,3.4,5.6-3.3,0-8.6.3-14.3,2.7-1.3.5-11,4.5-10.5,8.1.5,3.6,11.4,4.8,14.1,5,6.2.7,16.3.6,29-4.3-2.4,4.8-1.6,6.4-1.1,6.9,2,2.3,9.1-.7,13.2-3.3,5.4-3.4,8.4-8,9.8-10.8,0,1.3,0,3.7,1.5,5.8.5.7,1,1.5,1.8,1.5,1.3.1,2.9-1.9,4-5.2-3.5-8.5-6.8-17.1-10.1-25.6Z"/>
    <path class="uuid-4cc685ca-0bbf-4215-bab7-96fe1411fa01" d="m119,67.8c-24.2-12.4-52.5-28.2-51.8-34.2.3-2.1,1.3-2.9,1.3-2.9,2.5-1.7,7.7,2.2,10.4,4.1,0,0,8.8,6.3,29.5,17.7,3.9,2.1,9.8,5.1,17.8,7.8-2.5,2.5-4.9,5-7.2,7.5Z"/>
    <path class="uuid-4cc685ca-0bbf-4215-bab7-96fe1411fa01" d="m104.3,101c-8.9-.9-55-5.8-61.7-16.4-.4-.7-1.5-2.3-.9-3.4,1.7-3,14.5,2.3,27.5,5.6,8.6,2.2,20.8,5,36.1,6.8l-1,7.4Z"/>
    <path class="uuid-4cc685ca-0bbf-4215-bab7-96fe1411fa01" d="m108.6,131.7c-4.3,2.3-10.8,5.2-18.9,7.2-13.2,3.3-26.9,3.2-27.2,1.5-.2-1.3,8.6-4,26.3-9.4,6.8-2.1,12.4-3.7,16.3-4.8,1.1,1.8,2.3,3.6,3.5,5.4Z"/>
    <path class="uuid-b559e32b-ff38-4b63-a040-9900be3f0b84" d="m265.1,52.1c0-.9-.3-5.5,2.9-9.1,1.8-2,3.9-2.8,5-3.2,1.2-.5,3.3-1.2,5.8-.9,6,.7,9.1,6.2,9.4,6.8,2.6-4,5.2-8,7.8-12,3.5-5.2,9.3-7.4,13.8-5.8,2.8,1,4.4,3.3,5.2,4.5.3,1.3.5,2.5.8,3.7,10.6-11.4,20.1-18.6,24.5-19,.9,0,2.1-.1,2.1-.1,3.6,0,7-.1,9.6,1.8.7.6,2.1,1.8,2.9,4.3.3,1.7.7,4.4-.1,7.5-1.9,7.6-8.8,11.2-10,11.7-3.5,2.1-6.9,4.1-10.4,6.2,1.7-.6,17-5.8,19.8-1.3.7,1.1.4,2.3.3,2.7-1.5,8.1-21.7,11.2-24.3,11.6-3.6.4-7.2.8-10.8,1.3.9.2,2.6.7,4.1,2.1.5.5.9.9,1.1,1.3.9,1.4,1.3,2.6,1,3.6-1.2,4.4-13.4,5.9-36.8,4.4-7.8-7.4-15.8-14.8-23.8-22.2Z"/>
    <path class="uuid-b559e32b-ff38-4b63-a040-9900be3f0b84" d="m295,85.5c2.1-1.8,5.2-3.9,9.4-5.5,1.3-.5,10.1-3.7,12.2-.7.4.5.9,1.7-.2,4.3-.3.9-.6,1.8-.9,2.7,7.7-5.2,16.8-9.7,27.4-12.5.9-.3,1.8-.5,2.7-.7.3,0,1.4-.3,2.5.3,1.2.7,1.9,2.1,1.7,3.6-.4,1.2-.8,2.4-1.3,3.6,7.1-2.6,13.2-4.5,17.9-5.8,12.9-3.6,17.1-3.6,19.3-1.3,1.3,1.3,1.7,2.9,1.8,4.2,0,2-.5,3.5-.9,4.7-3.5,8.2-15.4,9.1-16.1,9.1,3.5,1.2,5.9,3.3,5.8,5.4,0,2.3-2.6,3.3-5.1,4.4-3.5,1.6-6.2,2.9-19.8,3.1-.4,0-.9,0-1.3,0-7-.5-14.1-.9-21.1-1.4,7,2.8,10.4,5,10.1,6.6-.1.8-1.3,1.5-3.3,1.9-2.5.2-5.1.3-7.8.5-10,.3-19.3-.4-27.4-1.6-1.8-8.4-3.7-16.7-5.7-25Z"/>
    <path class="uuid-b559e32b-ff38-4b63-a040-9900be3f0b84" d="m301,114c2.5,0,4.5.7,5.6,1.1,2.2.9,2.5,1.6,2.5,1.9.2.9-.4,1.8-.7,2.1-1.3.8-2.5,1.7-3.7,2.5,11.3,1.3,20.1,2.1,26,2.5,5.2.4,10.5.9,11.2,3.3.5,1.8-1.6,4-3.4,5.6,3.3,0,8.6.3,14.3,2.7,1.3.5,11,4.5,10.5,8.1-.5,3.6-11.4,4.8-14.1,5-6.2.7-16.3.6-29-4.3,2.4,4.8,1.6,6.4,1.1,6.9-2,2.3-9.1-.7-13.2-3.3-5.4-3.4-8.4-8-9.8-10.8,0,1.3,0,3.7-1.5,5.8-.5.7-1,1.5-1.8,1.5-1.3.1-2.9-1.9-4-5.2,3.5-8.5,6.8-17.1,10.1-25.6Z"/>
    <path class="uuid-4cc685ca-0bbf-4215-bab7-96fe1411fa01" d="m285.3,68.6c24.2-12.4,52.5-28.2,51.8-34.2-.3-2.1-1.3-2.9-1.3-2.9-2.5-1.7-7.7,2.2-10.4,4.1,0,0-8.8,6.3-29.5,17.7-3.9,2.1-9.8,5.1-17.8,7.8,2.5,2.5,4.9,5,7.2,7.5Z"/>
    <path class="uuid-4cc685ca-0bbf-4215-bab7-96fe1411fa01" d="m300,101.8c8.9-.9,55-5.8,61.7-16.4.4-.7,1.5-2.3.9-3.4-1.7-3-14.5,2.3-27.5,5.6-8.6,2.2-20.8,5-36.1,6.8l1,7.4Z"/>
    <path class="uuid-4cc685ca-0bbf-4215-bab7-96fe1411fa01" d="m295.7,132.5c4.3,2.3,10.8,5.2,18.9,7.2,13.2,3.3,26.9,3.2,27.2,1.5.2-1.3-8.6-4-26.3-9.4-6.8-2.1-12.4-3.7-16.3-4.8-1.1,1.8-2.3,3.6-3.5,5.4Z"/>
    <path class="uuid-4cc685ca-0bbf-4215-bab7-96fe1411fa01" d="m202.5,167.3V33c-10,.3-24,1.9-39.6,7.2-10.2,3.5-18.6,7.7-25.4,11.7-3.6,2.1-7,4.6-10.2,7.4-7.4,6.5-17.9,18.3-22.5,35.9-2.3,8.8-2.4,16.7-1.9,22.9.3,3.3,1.1,6.6,2.5,9.6,2.3,5,6.2,11.4,12.4,17.5,9.4,9.1,19.3,12.8,24.5,14.3,9.3,2.5,20.1,4.8,32.3,6.3,10.2,1.2,19.6,1.6,28,1.5Z"/>
    <path class="uuid-4cc685ca-0bbf-4215-bab7-96fe1411fa01" d="m201.9,167.3V33c10,.3,24,1.9,39.6,7.2,10.2,3.5,18.6,7.7,25.4,11.7,3.6,2.1,7,4.6,10.2,7.4,7.4,6.5,17.9,18.3,22.5,35.9,2.3,8.8,2.4,16.7,1.9,22.9-.3,3.3-1.1,6.6-2.5,9.6-2.3,5-6.2,11.4-12.4,17.5-9.4,9.1-19.3,12.8-24.5,14.3-9.3,2.5-20.1,4.8-32.3,6.3-10.2,1.2-19.6,1.6-28,1.5Z"/>
    <circle class="uuid-bdfa8fb1-f54a-480f-b9ad-6ba9ab76b4e5" cx="145.2" cy="96.5" r="9.2"/>
    <circle class="uuid-bdfa8fb1-f54a-480f-b9ad-6ba9ab76b4e5" cx="248.3" cy="95.5" r="9.2"/>
    <path class="uuid-31f0ce7f-3343-45a0-b008-5e13b3ac17b2" d="m181.5,100.3c2.1,1.5,8.8,6,18.5,6,9.4,0,15.9-4.4,18.1-6"/>
    <path class="uuid-cad62f46-cfbb-4d49-aa0d-301057425602" d="m109.7,63.2c-8.4-4.4-14.7-8-18.8-10.5-3.3-2-5.1-3.1-8.6-5.3-3.1-1.9-5.4-3.5-8.1-5.6-6.6-5-7-6.8-7-8.1,0-1.1.5-2.7,1.7-3.3,1.9-1,4.6.9,9.6,4.2,3.1,2.1,6.4,4,9.6,6.2,0,0,10.7,7.4,26.1,14.5,1.3.6,4.1,1.9,6.8,2.9,2,.8,3.7,1.5,5.2,1.9,7.6-6.2,35.1-27.1,76.2-27.1,41.4,0,69.1,21.4,76.5,27.6,2.4-.9,6-2.3,10.3-4.2,26.6-11.7,43.2-28.4,46.8-25,.7.7,1,2.1.9,2.9,0,2.3-1.9,4.1-3.8,5.8-5.8,5-8.7,6.4-8.7,6.4-6.8,3.4-13,7.8-19.7,11.4-3.8,2.1-10.3,5.6-18.9,10.1,2.5,3.1,5.4,7.3,8,12.4,2.6,5.2,4.3,9.9,5.5,13.8,14.8-1.4,25.2-3.9,32.2-6,4.5-1.3,9.1-2.3,13.6-3.7,9.4-2.7,15.6-5,17.1-2.9.4.6.3,1.3.3,1.8-.6,3.9-6.2,6.7-14.5,9.6-10,3.4-19.4,5.2-32.8,6.9-6.1.8-11,1.3-14.3,1.6,1.2,5.4,2,13-.2,21.3-.4,1.5-.9,2.9-1.3,4.2,5.3,1.5,9.6,2.6,12.4,3.3,5.6,1.5,12.6,3.8,26.5,8.6,1.3.5,3.5,1.2,3.4,1.9-.1,1.3-7.9,1.3-8.8,1.3-3.7,0-10.4-.3-21.1-3.5-3.9-1.2-9.3-3.1-15.5-6-1.7,2.9-4.5,7-8.7,11.3-16.5,17.1-38.5,19.5-65,22.2-10.4,1.1-39.6,3.3-71.7-4.8-14.9-3.7-26.5-8.7-35.7-18.8-3.6-4-6-7.8-7.4-10.4-1.9,1-4.3,2.1-7.2,3.2,0,0-4.2,1.7-8.7,2.8-10,2.6-29.1,4.4-29.4,2.4,0-.3.2-1.1,13-5.5,12.1-4.1,22.3-7,29.3-8.8-.6-1.5-1.3-3.7-1.8-6.5-.8-4.3-.7-7.8-.5-11.1,0-2,.3-4.8.9-7.9-9.6-1.3-17-2.3-21.3-2.8,0,0-18.7-2.3-32.3-8-.8-.3-3.8-1.7-6.2-4.7-.9-1.1-2.5-3.2-1.9-4.3.7-1.3,4.4-.5,14.4,2.1,5.1,1.3,9.4,2.5,12.4,3.3,5.6,1.5,11.5,2.9,17.9,4.2,6.6,1.3,12.8,2.2,18.7,2.9.3-1.1.7-2.3,1.1-3.5,1.3-3.6,2.7-6.8,4.2-9.6,1.1-2.1,2.5-4.3,4.1-6.7,1.5-2.1,2.9-4,4.3-5.8-3.3-1.5-6.4-3.1-9.4-4.8Z"/>
  </g>
</svg>