<?xml version="1.0" encoding="UTF-8"?>
<svg id="Capa_1" data-name="Capa 1" xmlns="http://www.w3.org/2000/svg" viewBox="0 0 275.94 196.86">
  <defs>
    <style>
      .cls-1, .cls-2 {
        fill: #fff;
      }

      .cls-3 {
        fill: #fbf6c4;
      }

      .cls-4 {
        fill: #442a18;
      }

      .cls-2 {
        stroke: #1d1d1b;
      }

      .cls-2, .cls-5 {
        stroke-miterlimit: 10;
      }

      .cls-6 {
        fill: #f6b2b7;
      }

      .cls-7 {
        fill: #f7e68d;
      }

      .cls-5, .cls-8, .cls-9 {
        fill: none;
      }

      .cls-5, .cls-9 {
        stroke: #442a18;
      }

      .cls-8 {
        stroke: #fad741;
      }

      .cls-8, .cls-9 {
        stroke-linecap: round;
        stroke-linejoin: round;
        stroke-width: 2px;
      }
    </style>
  </defs>
  <path class="cls-2" d="m230.55.5c-15.11,0-30.38,6.64-43.24,18.55-2.35-.72-4.79-1.38-6.86-1.93-.1-.03-.2-.05-.31-.08-2.74-1.53-5.86-2.18-10.34-3.02-6.71-1.26-9-1.26-9.87-1.26-.07,0-.13,0-.2,0-1.51-.21-3.07-.41-4.66-.59-.41-.08-.82-.15-1.24-.2-.32-.04-7.69-.94-14.72-1.12-.32-.02-.64-.03-.96-.03-.06,0-.12,0-.18,0-.15,0-.31,0-.47,0s-.31,0-.47,0c-.06,0-.12,0-.18,0-.35,0-.71.01-1.06.04-7.98.28-14.09.93-20.94,1.9-.93,0-3.32.03-10.11,1.22-6.05,1.06-8.97,1.71-11.87,3.61-1.55.45-3.01.89-4.39,1.33C75.65,7.1,60.43.5,45.39.5,29.34.5,15.54,7.92,7.53,20.86c-5.94,9.6-13.46,30.54,2.69,63.15,1.96,4.3,5.92,11.06,9.06,15.98,2.89,4.52,5.24,7.81,7.2,10.26-.02.68.01,1.37.08,2.05.17,1.68,1.92,16.8,9.31,30.04.73,1.3,1.62,2.48,2.66,3.51,1.1,1.77,2.28,3.51,3.52,5.21,1.28,2.06,3,4.07,5.05,6.47,2.01,2.35,4.04,4.73,6.48,6.58,10.28,9.72,23.17,17.74,37.37,23.26,14.79,5.74,30.48,8.72,46.66,8.87.64.08,1.29.12,1.94.12.21,0,.43,0,.65-.01,59.51-2.39,105.04-38.76,108.98-85.76,2.01-2.48,4.45-5.87,7.47-10.6,3.14-4.92,7.11-11.68,9.06-15.98,16.15-32.6,8.63-53.55,2.69-63.15C260.4,7.92,246.6.5,230.55.5h0Z"/>
  <path class="cls-7" d="m144.71,105.5c.98-6.83,1.46-13.72,1.44-20.62-.02-6.85-.47-13.69-1.05-20.51-1.09-12.59-2.61-25.16-2.89-37.8-.11,0-.21-.01-.32-.01-29.02-.93-53.13,7.43-58.23,10.79-5.1,3.36-12.48-1.23-12.48-1.23l-35.4-15.48-11.38,13.51-3.99,27.87.93,9.98s6.07,12.09,8.52,15.91c2.45,3.82,9.98,13.61,9.98,13.61l2.18,1.92s-.27,10.21,3.64,22.77c.51,1.62,2.82-.73,8.6-1.26,7.47-.67,16.08-1.37,26.97.87,19.34,3.99,33.22-3.85,39.84-3.8,6.05.04,10.35,2.44,10.35,2.44l5.35-4.15h5.64c.52-4.96,1.58-9.9,2.29-14.81Z"/>
  <path class="cls-8" d="m53.16,124.94c7.47-.67,16.08-1.37,26.97.87,19.34,3.99,33.22-3.85,39.84-3.8,6.05.04,10.35,2.44,10.35,2.44"/>
  <path class="cls-7" d="m129.72,105.5c-.98-6.83-1.46-13.72-1.44-20.62.02-6.85.47-13.69,1.05-20.51,1.09-12.59,2.61-25.16,2.89-37.8.11,0,.21-.01.32-.01,29.02-.93,53.13,7.43,58.23,10.79,5.1,3.36,12.48-1.23,12.48-1.23l35.4-15.48,11.38,13.51,3.99,27.87-.93,9.98s-6.07,12.09-8.52,15.91c-2.45,3.82-9.98,13.61-9.98,13.61l-2.18,1.92s.27,10.21-3.64,22.77c-.51,1.62-2.82-.73-8.6-1.26-7.47-.67-16.08-1.37-26.97.87-19.34,3.99-33.22-3.85-39.84-3.8-6.05.04-10.35,2.44-10.35,2.44l-5.35-4.15h-5.64c-.52-4.96-1.58-9.9-2.29-14.81Z"/>
  <path class="cls-5" d="m23.29,74.91c1.03,2.87,4.67,11.18,12.23,21.35,2.89,3.88,6.07,7.12,6.07,7.12,0,41.76,41.03,74.29,93.9,76.41l3.15-.02c.79-.03,1.57-.08,2.35-.12"/>
  <path class="cls-4" d="m85.29,36.76s.54-.82,4.5-2.36c1.44-.56,5.36-1.29,5.36-1.29,0,0,8.34,4.18,19.54,13.93,9.31,8.1,14.84,16.79,16.97,27.12,1.03,5.03.78,10.62-1.05,10.22-5.5-1.22-1.58-17.31-23.97-33.6-8.96-6.52-21.34-14.02-21.34-14.02Z"/>
  <path class="cls-4" d="m100.7,31.08s4.55-1.06,6.88-1.53c4.8-.96,7.04-.98,7.04-.98,0,0,1.99,4.42,3,6.64,1.68,3.68,3.18,8.07,2.5,8.76-2.24,2.3-3.1-1.85-9.77-7-2.46-1.9-5.37-3.66-6.56-4.48-1.29-.89-3.09-1.42-3.09-1.42Z"/>
  <path class="cls-4" d="m97.45,72.92s-4.98,2.56-5.12,4.44,6.73,1.48,9.16.54,4.71-4.17,3.23-4.98-5.3-1.16-7.27,0Z"/>
  <circle class="cls-4" cx="101.76" cy="106.32" r="12.66"/>
  <ellipse class="cls-1" cx="102.6" cy="101.47" rx="2.6" ry="4.04"/>
  <path class="cls-3" d="m76.95,55.61s-17.41,7.87-24.23,19.82-9.13,18.22-9.13,18.22c0,0-27.25-40.98-16.8-57.53,25.98-41.11,50.16,19.48,50.16,19.48Z"/>
  <path class="cls-4" d="m83.88,37.73c-.05-.14-.13-.27-.23-.38-2.05-2.33-25.45-28.26-48.58-20.31-19.95,6.86-20.28,24.94-18.74,35.64,1.64,11.4,4.96,19.46,6.96,24.08.52,1.21,3.92-7.34,4.41-8.57.78-1.94.54-2.19-.2-6.63-1.96-11.73-2.92-20.31,3.99-28.44,10.07-11.86,23.47-5.38,31.29,2.44,6.31,6.31,11.67,15.49,13.5,18.8.37.67,1.26.85,1.85.36,2.74-2.24,9.06-8.54,5.75-16.99Z"/>
  <path class="cls-4" d="m137.25,26.27h0c-.21-.01-.43,0-.65,0-.22,0-.44,0-.65,0h0c-6.47.13-13.71,1.02-13.71,1.02,2.53,1.32,9.78,18.29,11.49,22.39,1.07,2.57,1.4,3.15,2.87,3.17,1.12.01,1.79-.59,2.87-3.17,1.71-4.1,8.96-21.07,11.49-22.39,0,0-7.24-.9-13.71-1.01Z"/>
  <ellipse class="cls-4" cx="59.58" cy="85.28" rx="4.9" ry="1.94" transform="translate(-36.6 45.63) rotate(-32.66)"/>
  <ellipse class="cls-4" cx="55.99" cy="94.29" rx="4.9" ry="1.94" transform="translate(-42.03 45.12) rotate(-32.66)"/>
  <path class="cls-4" d="m175.84,72.91s4.98,2.56,5.12,4.44-6.73,1.48-9.16.54-4.71-4.17-3.23-4.98,5.3-1.16,7.27,0Z"/>
  <ellipse class="cls-4" cx="213.71" cy="85.27" rx="1.94" ry="4.9" transform="translate(26.6 219.17) rotate(-57.34)"/>
  <ellipse class="cls-4" cx="217.29" cy="94.27" rx="1.94" ry="4.9" transform="translate(20.66 226.34) rotate(-57.34)"/>
  <ellipse class="cls-4" cx="59.58" cy="59.58" rx="2.04" ry="5.29" transform="translate(-21.81 37.77) rotate(-30)"/>
  <ellipse class="cls-4" cx="51.46" cy="59.58" rx="1.95" ry="10.13" transform="translate(-27.14 64.07) rotate(-52.45)"/>
  <ellipse class="cls-4" cx="49.49" cy="66.25" rx="2.58" ry="8.62" transform="translate(-22.68 106.62) rotate(-82.46)"/>
  <path class="cls-4" d="m188.25,36.76s-.54-.82-4.5-2.36c-1.44-.56-5.36-1.29-5.36-1.29,0,0-8.34,4.18-19.54,13.93-9.31,8.1-14.84,16.79-16.97,27.12-1.03,5.03-.78,10.62,1.05,10.22,5.5-1.22,1.58-17.31,23.97-33.6,8.96-6.52,21.34-14.02,21.34-14.02Z"/>
  <path class="cls-4" d="m171.42,30.44s-4.22-1.06-6.38-1.53c-4.45-.96-6.53-.55-6.53-.55,0,0-1.84,3.99-2.78,6.21-1.56,3.68-2.95,8.07-2.32,8.76,2.08,2.3,2.88-1.85,9.06-7,2.28-1.9,4.98-3.66,6.08-4.48,1.2-.89,2.87-1.42,2.87-1.42Z"/>
  <circle class="cls-4" cx="171.78" cy="106.32" r="12.66"/>
  <ellipse class="cls-1" cx="170.95" cy="101.47" rx="2.6" ry="4.04"/>
  <path class="cls-5" d="m250.86,74.91c-1.03,2.87-4.67,11.18-12.23,21.35-2.89,3.88-6.07,7.12-6.07,7.12,0,41.76-41.03,74.29-93.9,76.41"/>
  <path class="cls-3" d="m197.19,55.61s17.41,7.87,24.23,19.82,9.13,18.22,9.13,18.22c0,0,27.25-40.98,16.8-57.53-25.98-41.11-50.16,19.48-50.16,19.48Z"/>
  <path class="cls-4" d="m190.26,37.73c.05-.14.13-.27.23-.38,2.05-2.33,25.45-28.26,48.58-20.31,19.95,6.86,20.28,24.94,18.74,35.64-1.64,11.4-4.96,19.46-6.96,24.08-.52,1.21-3.92-7.34-4.41-8.57-.78-1.94-.54-2.19.2-6.63,1.96-11.73,2.92-20.31-3.99-28.44-10.07-11.86-23.47-5.38-31.29,2.44-6.31,6.31-11.67,15.49-13.5,18.8-.37.67-1.26.85-1.85.36-2.74-2.24-9.06-8.54-5.75-16.99Z"/>
  <ellipse class="cls-4" cx="214.57" cy="59.58" rx="5.29" ry="2.04" transform="translate(55.69 215.61) rotate(-60)"/>
  <ellipse class="cls-4" cx="222.69" cy="59.58" rx="10.13" ry="1.95" transform="translate(9.82 148.06) rotate(-37.55)"/>
  <ellipse class="cls-4" cx="224.66" cy="66.25" rx="8.62" ry="2.58" transform="translate(-6.75 30.05) rotate(-7.54)"/>
  <path class="cls-5" d="m195.12,42.04c-.28-.24-10.9-13.77-59-15.79h-.18c-45.29,1.9-58.86,15.67-59,15.79"/>
  <path class="cls-4" d="m94.78,95.83s-11.02,7.02-12.64,7.02c0,0,3.5,4.61,6.32,4.25s6.32-11.26,6.32-11.26Z"/>
  <path class="cls-4" d="m178.94,95.83s11.02,7.02,12.64,7.02c0,0-3.5,4.61-6.32,4.25s-6.32-11.26-6.32-11.26Z"/>
  <path class="cls-4" d="m130.46,97.07c-.09,3.1-.04,8.72,0,9.78.06,1.68-.13,5.99,2.33,4.94,1.61-.69,1.05-11.52,1.09-12.67s-.08-2.97-1.75-3.25-1.67,1.21-1.67,1.21Z"/>
  <path class="cls-4" d="m144.76,97.07c.09,3.1.04,8.72,0,9.78-.06,1.68.13,5.99-2.33,4.94-1.61-.69-1.05-11.52-1.09-12.67s.08-2.97,1.75-3.25,1.67,1.21,1.67,1.21Z"/>
  <path class="cls-8" d="m220.6,124.94c-7.47-.67-16.08-1.37-26.97.87-19.34,3.99-33.22-3.85-39.84-3.8-6.05.04-10.35,2.44-10.35,2.44"/>
  <path class="cls-9" d="m158.23,132.56s-2.81,7.4-9.48,8.75c-6.67,1.35-11.97-7.51-11.97-7.51h0s-5.3,8.86-11.97,7.51c-6.67-1.35-9.48-8.75-9.48-8.75"/>
  <path class="cls-6" d="m126.68,122.35c3.08-4.08,8.69-3.43,10.09-3.19,1.4-.24,7.01-.89,10.09,3.19,3.54,4.69-4.38,8.65-5.84,9.9-1.17,1.01-3.42.87-4.26.77-.84.09-3.08.23-4.26-.77-1.46-1.25-9.38-5.21-5.84-9.9Z"/>
  <path class="cls-4" d="m108.85,95.83s3.43,1.64,5.57,8.71,2.36,17.48,2.36,17.48l-4.5-3.04c-6.36-4.3-13.29-3.4-13.29-3.4l8.46-7.2,1.39-12.54Z"/>
  <path class="cls-4" d="m164.65,95.83s-3.43,1.64-5.57,8.71-2.36,17.48-2.36,17.48l4.5-3.04c6.36-4.3,13.29-3.4,13.29-3.4l-8.46-7.2-1.39-12.54Z"/>
  <path class="cls-4" d="m41.41,108.86s1.37,13.15,7.37,23.9c0,0,9.1-1.99,19.43-11.31,10.33-9.32,13.98-16.2,12.31-19.71s-3.48,0-16.5,3.96c-11.07,3.36-22.61,3.16-22.61,3.16Z"/>
  <path class="cls-4" d="m54.53,140.63s.79,1.38,3.96,5.21c2.14,2.58,4.03,3.91,4.03,3.91,0,0,7.04-5.75,14.95-12.5s5.6-7.39,5.19-8.16c-.27-.5-8.01,3.93-10.36,5.27-5.99,3.41-17.77,6.27-17.77,6.27Z"/>
  <path class="cls-4" d="m232.05,108.86s-1.37,13.15-7.37,23.9c0,0-9.1-1.99-19.43-11.31-10.33-9.32-13.98-16.2-12.31-19.71s3.48,0,16.5,3.96c11.07,3.36,22.61,3.16,22.61,3.16Z"/>
  <path class="cls-4" d="m219.86,140.63s-.79,1.38-3.96,5.21c-2.14,2.58-4.03,3.91-4.03,3.91,0,0-7.04-5.75-14.95-12.5s-5.6-7.39-5.19-8.16c.27-.5,8.01,3.93,10.36,5.27,5.99,3.41,17.77,6.27,17.77,6.27Z"/>
</svg>