<?xml version="1.0" encoding="UTF-8"?>
<svg id="uuid-4b2bf65a-6156-43b0-b209-bccad2a82a55" data-name="Capa 1" xmlns="http://www.w3.org/2000/svg" viewBox="0 0 361.5 308.5">
  <defs>
    <style>
      .uuid-6d652595-f5b5-44c9-b956-b9de053d348f, .uuid-7f3b7b29-5446-4c1c-90fc-07f860efb9cf {
        fill: #fff;
      }

      .uuid-e3ad8fcf-b6bc-47e8-9d4d-d7ffc423db6b, .uuid-938ecb76-cead-4774-add7-ec066e40ba14, .uuid-7f3b7b29-5446-4c1c-90fc-07f860efb9cf {
        stroke: #000;
      }

      .uuid-e3ad8fcf-b6bc-47e8-9d4d-d7ffc423db6b, .uuid-938ecb76-cead-4774-add7-ec066e40ba14, .uuid-7f3b7b29-5446-4c1c-90fc-07f860efb9cf, .uuid-52e40539-1b58-4880-acb2-3c5f62649457 {
        stroke-miterlimit: 10;
      }

      .uuid-e3ad8fcf-b6bc-47e8-9d4d-d7ffc423db6b, .uuid-938ecb76-cead-4774-add7-ec066e40ba14, .uuid-52e40539-1b58-4880-acb2-3c5f62649457 {
        fill: none;
      }

      .uuid-edc8744a-f1fa-4637-8131-0ff8ff7b4e2a {
        fill: #333;
      }

      .uuid-938ecb76-cead-4774-add7-ec066e40ba14 {
        stroke-width: 2px;
      }

      .uuid-52e40539-1b58-4880-acb2-3c5f62649457 {
        stroke: #ccc;
      }
    </style>
  </defs>
  <g id="uuid-cfc7cac5-c93a-4df8-a48d-a7cea0dd58f9" data-name="Capa 3">
    <g id="uuid-610bbbf2-a3d5-4b80-8042-91313a1e79a7" data-name="Capa 2">
      <g>
        <path class="uuid-7f3b7b29-5446-4c1c-90fc-07f860efb9cf" d="m178.7,308c-39.6,0-76.9-7.7-105.1-21.8-16-7.2-28.3-16.4-37.7-27.9-14.9-17.5-21.2-40.7-18.8-69.1.9-21.1,6.9-38.7,13.6-56.3l-3.4-1.5C4.9,121.6-5.3,96.2,3.9,73.6l1.8-4.4C15.8,44.3,34.5,23.9,58.4,11.5l11.7-6c6.3-3.3,13.4-5,20.5-5,16.1,0,31.1,8.7,39,22.8l2.7,4.7c6.3-2,13.7-3.9,22-5.3l6.5-.3s18.3-1.9,18.4-1.9h2.1l22.2,1.8,3.8.4c8.3,1.4,15.8,3.3,22.1,5.4l2.6-4.7c7.9-14.1,22.9-22.8,39-22.8s14.2,1.7,20.5,5l11.7,6c23.8,12.3,42.5,32.8,52.7,57.7l1.8,4.4c9.2,22.6-1.1,48-23.4,57.8l-3.4,1.5c6.4,17,12.2,33.9,13.4,54.1,1.5,15.8.2,30.4-3.9,43.3-2,6.9-4.9,13.5-8.7,19.4-11.1,17.7-28.4,30.9-52.8,40.2-13.2,5.5-28,9.8-44,12.9-12.6,2.7-25.6,4.2-38.6,4.7-5.9.2-11.8.4-17.6.4Z"/>
        <g>
          <path d="m59.9,124l-24.5-10.8c-10.3-4.5-15.1-16.4-10.9-26.8l1.8-4.4c8-19.6,22.7-35.7,41.5-45.4l11.7-6c9.9-5.1,22.1-1.5,27.6,8.2l13.3,23.7-60.5,61.5Z"/>
          <path d="m298.4,124l24.5-10.8c10.3-4.5,15.1-16.4,10.9-26.8l-1.8-4.4c-8-19.6-22.7-35.7-41.5-45.4l-11.7-6c-9.9-5.1-22.1-1.5-27.6,8.2l-13.3,23.7,60.5,61.5Z"/>
          <path class="uuid-6d652595-f5b5-44c9-b956-b9de053d348f" d="m318.6,205.9c-.5,8.5-.6,21.7-8.8,34.9-15.5,24.7-44.6,32.4-69.1,39.3-13.6,3.8-34.7,8.2-61.5,7.3-26.8.9-47.9-3.4-61.5-7.3-24.5-6.9-53.6-14.7-69.1-39.3-8.3-13.2-8.3-26.4-8.9-34.9-1.4-22.6,3.8-39.5,12.3-61.6,8.4-22.1,14.6-38.3,30.3-54.8,17.6-18.5,36.7-26.5,47.7-31,18.4-7.5,34.7-9.4,46.7-10.1.6,0,1.2-.1,1.8-.1,1,0,2.1.1,3.2.2,12,.7,28.4,2.6,46.8,10.1,10.9,4.5,30.1,12.5,47.7,31,15.7,16.5,21.8,32.7,30.3,54.8,8.3,22,13.5,38.9,12.1,61.5Z"/>
          <path class="uuid-6d652595-f5b5-44c9-b956-b9de053d348f" d="m181.6,48.1v.3c-1.1-.1-2.1-.1-3.2-.2,1.1,0,2.2,0,3.2-.1Z"/>
          <path class="uuid-6d652595-f5b5-44c9-b956-b9de053d348f" d="m178.4,48.3c-.6,0-1.2.1-1.8.1v-.2c.6,0,1.2,0,1.8,0Z"/>
          <path d="m152.4,171.8c.9-2.9,1.5-6.4,2.8-13.3.3-1.7.5-3,.8-4.5.5-3.5.9-5.7.9-8.5.2-7.2-1.4-10.8-1.9-11.7-.2-.3-.3-.6-.5-.9-3.1-5.7-7.9-8.4-9.9-9.4s-4.3-1.9-7.3-2.4c-5.2-.9-9.6-.1-12.3.7l-1.2.3c-3.4.7-8.5,2.3-13.4,6.2-1.7,1.4-3.1,2.8-4.3,4.1-2.5,2.9-4.1,5.2-6.8,9.4-1,1.5-2.2,3.5-3.7,5.9-.3.6-.7,1.2-1.1,1.7-2.2,3-4.3,5.2-5.8,6.7-2.2,2.2-2.9,2.9-6.6,5.8-1.9,1.5-4.1,3.5-6.3,6.1-2.1,2.5-3.5,5-4.6,7.3-1.3,2.6-2,5.5-2.1,8.3,0,2.1,0,4.4.2,6.8.4,3.9,1.2,7.3,2.2,10.1,1.2,3.6,3.3,6.9,6.1,9.4,1.7,1.5,3.8,3,6.5,4.2,7.1,3.2,13.5,2.3,15.9,1.9,7.6-1.5,20.7-5.1,33.3-15.1,4.2-3.3,7.6-6.8,10.3-10.1,2-2.3,2.9-4.8,4.1-7.3,3-5.8,4.4-10.5,4.7-11.7Z"/>
          <path d="m205.9,171.8c-.9-2.9-1.5-6.4-2.8-13.3-.3-1.7-.5-3-.8-4.5-.5-3.5-.9-5.7-.9-8.5-.2-7.2,1.4-10.8,1.9-11.7.2-.3.3-.6.5-.9,3.1-5.7,7.9-8.4,9.9-9.4s4.3-1.9,7.3-2.4c5.2-.9,9.6-.1,12.3.7l1.2.3c3.4.7,8.5,2.3,13.4,6.2,1.7,1.4,3.1,2.8,4.3,4.1,2.5,2.9,4.1,5.2,6.8,9.4,1,1.5,2.2,3.5,3.7,5.9.3.6.7,1.2,1.1,1.7,2.2,3,4.3,5.2,5.8,6.7,2.2,2.2,2.9,2.9,6.6,5.8,1.9,1.5,4.1,3.5,6.3,6.1,2.1,2.5,3.5,5,4.6,7.3,1.3,2.6,2,5.5,2.1,8.3,0,2.1,0,4.4-.2,6.8-.4,3.9-1.2,7.3-2.2,10.1-1.2,3.6-3.3,6.9-6.1,9.4-1.7,1.5-3.8,3-6.5,4.2-7.1,3.2-13.5,2.3-15.9,1.9-7.6-1.5-20.7-5.1-33.3-15.1-4.2-3.3-7.6-6.8-10.3-10.1-2-2.3-2.9-4.8-4.1-7.3-3-5.8-4.4-10.5-4.7-11.7Z"/>
          <path class="uuid-6d652595-f5b5-44c9-b956-b9de053d348f" d="m179.4,162.7v94.1l-4.6-1c-4.1-.8-7.5-2.1-10.3-3.4-3.2-1.5-6.9-3.6-10.7-6.5-2.4-1.8-4.4-3.6-6-5.4-3.4-3.5-7.2-8.2-10.8-14.2-4.7-7.8-7.3-15.2-8.8-20.9-.2-.7-.2-1.4,0-2.1,1.1-3.5,2.7-7.5,4.9-11.6,4.9-9.2,11.1-15.7,16.2-20,1.6-1.4,3.4-2.5,5.3-3.5,1.5-.7,3.1-1.5,4.9-2.2,3.5-1.4,6.8-2.2,9.7-2.8,1.3-.3,2.7-.4,4-.4h6.2Z"/>
          <path class="uuid-6d652595-f5b5-44c9-b956-b9de053d348f" d="m178.6,162.7v94.1l4.6-.9c4.1-.8,7.6-2.1,10.4-3.4,3.2-1.5,6.9-3.6,10.8-6.5,2.4-1.8,4.4-3.6,6.1-5.4,3.4-3.5,7.3-8.2,10.8-14.2,4.7-7.8,7.3-15.2,8.8-20.9.2-.7.2-1.4,0-2.1-1.1-3.5-2.7-7.5-4.9-11.6-4.9-9.2-11.2-15.7-16.2-20-1.6-1.4-3.4-2.5-5.3-3.5-1.5-.7-3.2-1.5-4.9-2.2-3.5-1.4-6.8-2.2-9.7-2.8-1.3-.3-2.7-.4-4-.4l-6.5-.2Z"/>
          <path d="m182.9,184.8v14.9c0,1.6-3.6,2.8-5.1,2.2-2.3-.8-4.8-1.9-7.4-3.2s-4.2-2.3-6-3.4c-1.1-.6-3.5-2.2-5.1-5.1-.4-.8-.7-1.6-.9-2.4-.3-.9,0-1.9.9-2.4.3-.2.7-.4,1.1-.7,1.7-.9,3.3-1.2,4.3-1.3,2.4-.4,5.1-.7,8.1-.9,2.1-.1,4.1-.1,5.9,0,1.2,0,4.2,1,4.2,2.3Z"/>
          <circle class="uuid-edc8744a-f1fa-4637-8131-0ff8ff7b4e2a" cx="133.5" cy="155.8" r="13.2"/>
          <circle class="uuid-edc8744a-f1fa-4637-8131-0ff8ff7b4e2a" cx="224.8" cy="155.8" r="13.2"/>
          <ellipse class="uuid-6d652595-f5b5-44c9-b956-b9de053d348f" cx="137.1" cy="153.4" rx="6.2" ry="6.9"/>
          <ellipse class="uuid-6d652595-f5b5-44c9-b956-b9de053d348f" cx="221.2" cy="153.4" rx="6.2" ry="6.9"/>
          <ellipse class="uuid-edc8744a-f1fa-4637-8131-0ff8ff7b4e2a" cx="134.3" cy="153.4" rx="6.3" ry="7.3"/>
          <ellipse class="uuid-edc8744a-f1fa-4637-8131-0ff8ff7b4e2a" cx="224" cy="153.4" rx="6.3" ry="7.3"/>
          <path d="m175.1,184.8v14.9c0,1.6,3.6,2.8,5.1,2.2,2.3-.8,4.8-1.9,7.4-3.2s4.2-2.3,6-3.4c1.1-.6,3.5-2.2,5.1-5.1.4-.8.7-1.6.9-2.4.3-.9,0-1.9-.9-2.4-.3-.2-.7-.4-1.1-.7-1.7-.9-3.3-1.2-4.3-1.3-2.4-.4-5.1-.7-8.1-.9-2.1-.1-4.1-.1-5.9,0-1.2,0-4.2,1-4.2,2.3Z"/>
          <path class="uuid-e3ad8fcf-b6bc-47e8-9d4d-d7ffc423db6b" d="m59.8,124.1c-7.8,20.5-40.5,91.4-3.3,126.5,60,56.7,216,44.3,251.7-8.2,25-36.7.7-90.8-9.8-118.5"/>
          <path class="uuid-e3ad8fcf-b6bc-47e8-9d4d-d7ffc423db6b" d="m161,250.5c1.7,1.4,4.5,3.2,8.2,4.5,4.5,1.6,8.3,1.7,9.7,1.7,4.8,0,8.3-1.3,10.6-2.1,3.5-1.3,6.2-2.9,8-4.1"/>
          <path class="uuid-938ecb76-cead-4774-add7-ec066e40ba14" d="m178.9,201.9c0,1.4,0,11.3-8.2,18-6.2,5.1-13.1,5.3-15.1,5.2"/>
          <path class="uuid-938ecb76-cead-4774-add7-ec066e40ba14" d="m179,201.9c0,1.4,0,11.3,8.2,18,6.2,5.1,13.1,5.3,15.1,5.2"/>
          <path d="m106,118c-1.1-2.1,3.6-7.2,8.7-9.5,4.7-2.2,11.3-2.7,12.3-.7,1.1,2.3-4.6,8.1-11.1,10.2-3.5,1.1-8.9,1.9-9.9,0Z"/>
          <path d="m251.6,118.5c1.1-2.1-3.6-7.2-8.7-9.5-4.7-2.2-11.3-2.7-12.3-.7-1.1,2.3,4.6,8.1,11.1,10.2,3.5,1.2,8.9,1.9,9.9,0Z"/>
          <path class="uuid-e3ad8fcf-b6bc-47e8-9d4d-d7ffc423db6b" d="m120,62.2c9.5-5.3,30.5-13.8,58.4-14,28.6-.2,50.3,8.8,59.9,14"/>
          <path class="uuid-e3ad8fcf-b6bc-47e8-9d4d-d7ffc423db6b" d="m165.6,167.7c1.3-1.1,5.8-4.7,12.6-5s11.6,2.7,13,3.7"/>
          <path class="uuid-52e40539-1b58-4880-acb2-3c5f62649457" d="m128,204.4c1.4-5.4,4.4-14.2,11.4-23,4.8-6,10-10.1,13.9-12.6"/>
          <path class="uuid-52e40539-1b58-4880-acb2-3c5f62649457" d="m205.2,169c4.5,3.1,11.4,8.8,17.2,17.7,4.5,6.9,6.8,13.4,8,18.1"/>
        </g>
      </g>
    </g>
  </g>
</svg>